<svg xmlns="http://www.w3.org/2000/svg" version="1.1" width="300" height="200">
<polygon points="150, 15 224, 143 76, 143 " stroke="Yellow" fill="Yellow" stroke-width="5" />
<rect x="70" y="20" width="160" height="160" rx="0" ry="0" stroke="Orange" fill="Orange" stroke-width="5" />
<polygon points="150, 15 231, 74 200, 169 100, 169 69, 74 " stroke="Red" fill="Red" stroke-width="5" />
<polygon points="150, 15 224, 57 224, 142 150, 185 76, 143 76, 57 " stroke="magenta" fill="magenta" stroke-width="5" />
<polygon points="150, 15 179, 20 205, 35 224, 57 234, 85 234, 115 224, 142 205, 165 179, 180 150, 185 121, 180 95, 165 76, 143 66, 115 66, 85 76, 58 95, 35 121, 20 " stroke="Purple" fill="Purple" stroke-width="5" />
<circle cx="150" cy="100" r="80" stroke="Navy" fill="Navy" stroke-width="5" />
<text text-anchor="middle" dominant-baseline="middle" x="150" y="100" font-family="sans-serif" font-weight="bold" font-size="80px" stroke="black" fill="white" stroke-width="2" >^o-</text>
</svg>